Coordinates
version=1
nRows=8
nColumns=40
inDegrees=yes

Units are S.I. units (second, meters, Newtons, ...)
Angles are in degrees.

endheader
time	pelvis_tilt	pelvis_list	pelvis_rotation	pelvis_tx	pelvis_ty	pelvis_tz	hip_flexion_r	hip_adduction_r	hip_rotation_r	knee_angle_r	knee_angle_r_beta	ankle_angle_r	subtalar_angle_r	mtp_angle_r	hip_flexion_l	hip_adduction_l	hip_rotation_l	knee_angle_l	knee_angle_l_beta	ankle_angle_l	subtalar_angle_l	mtp_angle_l	lumbar_extension	lumbar_bending	lumbar_rotation	arm_flex_r	arm_add_r	arm_rot_r	elbow_flex_r	pro_sup_r	wrist_flex_r	wrist_dev_r	arm_flex_l	arm_add_l	arm_rot_l	elbow_flex_l	pro_sup_l	wrist_flex_l	wrist_dev_l
      2.80000000	     -4.33435499	     -0.27703462	      0.95595097	      0.40889133	      0.88796116	      1.47287366	      7.77337558	      1.80832899	    -12.01050483	    -22.44627531	     -0.39176141	     13.40214979	     -0.99713452	     -4.16512139	     32.88452434	      5.81384665	     15.39083947	    -32.74900196	     -0.57157791	      8.21963622	     16.08270284	      9.17056113	     -3.60852217	     -0.06781074	     -1.09723765	      3.80542963	    -10.25932452	    -14.04003458	     34.99444115	     89.95437384	      0.00000000	      0.00000000	     -3.09000723	      7.73253798	     19.81960059	     24.66496499	     89.95437384	      0.00000000	      0.00000000
      2.81000000	     -4.62316365	     -0.41323052	      0.95079938	      0.41440229	      0.88703709	      1.47245339	      7.71197106	      1.93255127	    -11.94652668	    -22.48791446	     -0.39248815	     13.51113125	     -1.01637904	     -4.16852186	     33.38792905	      5.87840289	     15.64724801	    -31.22141054	     -0.54491641	      8.17053002	     15.38544510	      9.02377219	     -3.33960739	      0.04521898	     -1.03800606	      3.93420690	    -10.31459010	    -13.96626829	     35.04636740	     89.95437384	      0.00000000	      0.00000000	     -3.20530645	      7.71483382	     19.80778017	     24.59309040	     89.95437384	      0.00000000	      0.00000000
      2.82000000	     -4.82942613	     -0.46995138	      0.88582866	      0.41995613	      0.88626042	      1.47200508	      7.58302378	      1.95573945	    -11.85933284	    -22.60440495	     -0.39452129	     13.71585325	     -1.03753422	     -4.19255839	     33.76911436	      5.88171090	     15.93242094	    -29.78847909	     -0.51990704	      8.12033098	     14.56884829	      8.81254015	     -3.17289111	      0.07087883	     -0.92426857	      4.10775851	    -10.34392850	    -13.90135668	     35.01082333	     89.95437384	      0.00000000	      0.00000000	     -3.23042292	      7.69548370	     19.84444439	     24.42018005	     89.95437384	      0.00000000	      0.00000000
      2.83000000	     -4.97773729	     -0.62286186	      0.95061457	      0.42564115	      0.88534549	      1.47138899	      7.34795707	      2.06815423	    -11.99287828	    -22.67506828	     -0.39575460	     13.83063668	     -1.07066380	     -4.18906916	     34.33892877	      6.01290887	     16.37641445	    -28.95342815	     -0.50533265	      8.18960936	     14.28737721	      8.71497714	     -3.06505666	      0.20249649	     -0.96934650	      4.24737851	    -10.35115138	    -13.87627666	     35.10560164	     89.95437384	      0.00000000	      0.00000000	     -3.32988291	      7.70269880	     19.81873400	     24.37253696	     89.95437384	      0.00000000	      0.00000000
      2.84000000	     -5.16753807	     -0.56721257	      0.70290430	      0.43151579	      0.88467664	      1.47088589	      7.21820485	      1.96091932	    -11.69017491	    -22.83076827	     -0.39847208	     14.09975992	     -0.95894919	     -4.25230389	     34.43738098	      5.91414409	     16.63585061	    -27.35891543	     -0.47750315	      7.82865044	     12.93712951	      8.41385081	     -2.86545516	      0.10879894	     -0.65559824	      4.41074135	    -10.39813406	    -13.76787798	     34.89660725	     89.95437384	      0.00000000	      0.00000000	     -3.32652603	      7.64940543	     19.90435801	     24.15284415	     89.95437384	      0.00000000	      0.00000000
      2.85000000	     -5.25457806	     -0.67293410	      0.72987353	      0.43739497	      0.88383400	      1.47028765	      6.95063416	      2.01887768	    -11.77092383	    -22.99263530	     -0.40129719	     14.13340627	     -0.97035640	     -4.24042290	     34.93405692	      6.01607178	     16.99037216	    -26.84852529	     -0.46859517	      7.84195113	     12.66892435	      8.29695871	     -2.82227620	      0.15626102	     -0.68673799	      4.51258897	    -10.36117730	    -13.73076988	     34.99130657	     89.95437384	      0.00000000	      0.00000000	     -3.40372089	      7.69028580	     19.88479018	     24.14781181	     89.95437384	      0.00000000	      0.00000000
      2.86000000	     -5.25152609	     -0.49107167	      0.36805548	      0.44365133	      0.88342158	      1.46958467	      6.61785575	      1.75490124	    -11.34365497	    -23.24570049	     -0.40571401	     14.62995626	     -0.75161695	     -4.37705912	     34.72168556	      5.92744060	     17.63310755	    -25.52374024	     -0.44547330	      7.26660128	     11.06582983	      7.86273288	     -2.79389839	     -0.05479640	     -0.33653011	      4.80409016	    -10.37485439	    -13.71205788	     34.59455146	     89.95437384	      0.00000000	      0.00000000	     -3.33688843	      7.62519413	     20.08194049	     23.74531950	     89.95437384	      0.00000000	      0.00000000
      2.87000000	     -5.34147800	     -0.58682593	      0.31535502	      0.44989718	      0.88259690	      1.46888367	      6.32728833	      1.77931396	    -11.47331274	    -23.37208944	     -0.40791991	     14.64914183	     -0.76840192	     -4.36228655	     35.10499886	      6.03847083	     17.90621382	    -25.19655340	     -0.43976282	      7.24416444	     10.84917761	      7.73911679	     -2.69077185	     -0.01249548	     -0.27830396	      4.83978376	    -10.33590502	    -13.67805075	     34.64691787	     89.95437384	      0.00000000	      0.00000000	     -3.44718680	      7.64224623	     20.06838038	     23.78726272	     89.95437384	      0.00000000	      0.00000000
